<svg viewBox="0 0 571.85 242.42" xmlns="http://www.w3.org/2000/svg"><path d="m26.72 178.68c0 13.72 6.22 16.1 9.51 16.1 4.21 0 9.52-.73 12.08-2.38a1.51 1.51 0 0 1 2.2.37l.91 1.65a1.46 1.46 0 0 1 -.36 2c-1.83 1.83-9.34 7.32-20.32 7.32-9 0-17.75-8.6-17.75-15.56 0-7.5.55-23.6.55-26.16v-4c0-3.29.18-15.74.37-23.42h-11.16c-1.65 0-2.75-.74-2.75-2.2s1.1-2 3.29-3.29c4.4-2.57 18.49-16.66 20.87-22.88a2.46 2.46 0 0 1 2.56-1.83c1.46 0 1.83 1.28 1.83 2.75l-.92 17.93h25.44c1.1 0 1.65.92 1.28 1.65l-1.83 6.4c-.18.92-.55 1.47-1.65 1.47h-23.6c-.37 8.41-.55 17.38-.55 25.8z" fill="#801332"/><path d="m72.1 101.82c0-11.16-2.2-13.18-8.78-15.37l-3.12-1.1c-1.09-.37-1.28-.55-1.28-1.1v-1.65c0-.73.55-.91 2.2-1.83l19-10.06a9.75 9.75 0 0 1 4.21-1.46c1.1 0 1.83 1.46 1.46 4.57s-.55 40.26-.55 49.41v11.71h.92a34.92 34.92 0 0 1 25.07-11.89 24 24 0 0 1 18.12 7.32c8.23 7.68 7.87 17 7.87 26.9v10.43c0 10.25.36 21.59.36 25.07 0 2.2 2.93 2.74 6.77 2.74h3.11c1.47 0 2 .37 2 1.65v2.75c0 1.46-.37 2.19-1.47 2.19-1.28 0-7.13-.55-17.56-.55-9 0-15.56.55-17.21.55-1.28 0-1.64-.55-1.64-2v-3.1c0-.92.18-1.47 1.28-1.47h4.21c3.11 0 6.77-.36 6.95-3.47.18-2.56 0-12.26 0-18.12v-14.84c0-10.25-.73-17.57-6-22.51a16.76 16.76 0 0 0 -12.02-5.12 22.37 22.37 0 0 0 -17 7.68c-1.64 2-3.66 5.67-3.66 9v39.85c0 5.86.55 7.5 4 7.5h5.49c1.28 0 2 .37 2 1.47v3.11c0 1.28-.36 2-1.46 2-1.46 0-9-.55-17.38-.55-9.16 0-16.11.55-17.76.55-.73 0-1.28-.55-1.28-1.83v-3.25c0-1.28.74-1.47 2.75-1.47h3.84c2.93 0 5.67-.73 6-2.92.55-3.48.55-23.61.55-35.5z" fill="#801332"/><path d="m170.55 152.88c0-9.34-1.46-11.17-6.59-13.91l-3.47-1.83c-1.1-.37-1.47-.55-1.47-1.28v-1.1c0-.73.37-1.1 1.47-1.65l18.11-9.33a5.5 5.5 0 0 1 2.57-.73c1.09 0 1.28 1.1 1.28 2.19l.91 13h.73c5.49-8.42 14.09-15.92 22-15.92 6.22 0 9.34 3.84 9.34 8.05 0 5.3-4.4 9-7.69 9a12.07 12.07 0 0 1 -5.31-1.46 11.82 11.82 0 0 0 -6-1.46c-2.92 0-7.68 1.83-10.79 7.68a19.74 19.74 0 0 0 -1.83 5.86v38.01c0 5.67 1.28 7.5 5.12 7.5h8.6c1.1 0 1.28.55 1.28 1.65v3.3c0 1.09-.18 1.64-.91 1.64-1.1 0-9.52-.55-19.4-.55-11.35 0-19 .55-20.13.55-.73 0-1.1-.36-1.1-1.83v-3.11c0-1.28.37-1.65 2-1.65h7.13c2.75 0 4-1.09 4-3.47.18-6 .18-12.45.18-22z" fill="#801332"/><path d="m235.7 148.3c0-6.22-1.1-9.51-10.25-11-1.28-.18-1.65-.55-1.65-1.28v-1.65c0-.55.37-.91 1.28-1.28a148.77 148.77 0 0 0 19.76-9 7.48 7.48 0 0 1 3.48-1.1c.92 0 1.1.91.92 2.19-.37 3.11-.37 14.64-.37 29.83v20c0 7.14 0 13.72.18 15.74.37 3.47.92 4.75 2.93 4.75h8.42c1.46 0 1.83.55 1.83 1.65v3.11c0 1.28-.37 1.83-1.65 1.83-1.46 0-9.88-.55-17.57-.55-10.61 0-17.75.55-19.76.55-.91 0-1.46-.36-1.46-1.46v-3.63c0-1.1.55-1.47 1.83-1.47h9c2 0 2.75-.73 2.93-3.65.19-5.5.19-11.17.19-16.66z" fill="#801332"/><path d="m308.16 184.72h.55c2.93-7.14 15.74-38.61 17.57-45.75 1.28-4.94 0-7.87-3.29-7.87h-3.66c-.55 0-.74-.92-.74-1.83v-3.27c0-1.1.37-1.47 1.1-1.47 2.56 0 6.59.55 14.64.55 7.14 0 11.53-.55 13.18-.55 1.46 0 1.64.18 1.64 1.65v3.11c0 1.28 0 1.83-.91 1.83h-3.48a7.31 7.31 0 0 0 -5.67 2c-2.75 2.56-11.9 22.69-14.64 29.47-2.2 5.49-15.74 36.23-16.47 37.51-1.46 2.56-2.38 4.21-4.39 4.21-1.83 0-2.93-1.65-3.85-3.84l-14.27-37.15c-.55-1.47-8.05-22.51-9.33-25.44-2.38-5.31-4.21-6.77-7.51-6.77h-3.63c-.91 0-1.09-.73-1.09-1.83v-3.28c0-1.29.36-1.47 2-1.47 2 0 5.12.55 15.37.55 9.7 0 14.46-.55 16.47-.55 1.47 0 1.83.37 1.83 1.47v3.29c0 1.1-.18 1.83-1.28 1.83h-3.66a3.13 3.13 0 0 0 -3.29 3.48c0 3.29 4.75 18.66 5.85 21.77 1.08 3.46 8.95 24.51 10.96 28.35z" fill="#801332"/><path d="m365.08 152.88a46.5 46.5 0 0 0 -.55 8.78c0 17.93 11.34 31.48 26 31.48 11.16 0 19-6.41 22.14-12.45a1.48 1.48 0 0 1 1.65-.91l2.38 1.28c.55.18.92.73 0 2.74-3.29 7.32-12.81 19.95-29.1 19.95-10.43 0-22-3.11-28.73-13-6.4-9.34-8.05-16.11-8.05-28.92 0-7.13 1.83-19.39 11.53-29.09 7.87-8.06 17-9.7 26.17-9.7 21 0 26.9 19.76 26.9 26.9 0 2.56-2.2 2.93-5.12 2.93zm29.09-5.49c3.48 0 4.94-.92 4.94-2.57 0-4.2-2.19-16.28-14.09-16.28-8 0-15.74 5.3-19.21 18.85z" fill="#801332"/><g fill="#81b241"><path d="m247.28 104.1c0-.06 0-.11 0-.16-.17-3.13-2.76-5.21-5-8a38.42 38.42 0 0 1 -4.5-7 37.53 37.53 0 0 1 -4.5 7c-2.31 2.85-4.83 4.87-5 8s0 .1 0 .15 0 .1 0 .16c.16 3.13 2.75 5.21 5 8a38.42 38.42 0 0 1 4.5 7 38.17 38.17 0 0 1 4.5-7c2.31-2.85 4.83-4.88 5-8 .01-.06 0-.1 0-.15z"/><path d="m1.45 211.46h10.65c5.14 0 8.84 2.84 8.84 7.76a7.11 7.11 0 0 1 -3.79 6.55v.09c3.19.95 5 4 5 7.38 0 5.73-4.44 8.66-9.79 8.66h-10.91zm10.65 12.8a4.31 4.31 0 0 0 4.49-4.61 4.19 4.19 0 0 0 -4.59-4.48h-6.28v9.09zm.48 13.93a4.83 4.83 0 0 0 5.22-5.19 4.94 4.94 0 0 0 -5.26-5.22h-6.82v10.39z"/><path d="m34.83 211.46h4.27v19.66c0 4.66 3 7.38 7.68 7.38s7.76-2.72 7.76-7.46v-19.58h4.27v19.66c0 6.77-4.87 11.3-12 11.3s-12-4.53-12-11.3z"/><path d="m73.21 235.18a12 12 0 0 0 7.79 3.27c2.85 0 5.27-1.59 5.27-4.48 0-6.6-14.75-5.18-14.75-14.54 0-4.74 4.09-8.49 9.83-8.49a12.46 12.46 0 0 1 8.59 3.06l-1.94 3.54a10.72 10.72 0 0 0 -6.68-2.63c-3.23 0-5.52 2-5.52 4.44 0 6.29 14.75 4.61 14.75 14.49 0 4.7-3.62 8.58-9.66 8.58a14.24 14.24 0 0 1 -10.09-4z"/><path d="m103.14 211.46h4.27v30.44h-4.27z"/><path d="m122.16 211.46h4.22l13.55 19.79c1.12 1.64 2.54 4.4 2.54 4.4h.09s-.31-2.72-.31-4.4v-19.79h4.27v30.44h-4.18l-13.58-19.75c-1.12-1.68-2.55-4.44-2.55-4.44h-.08s.3 2.72.3 4.44v19.75h-4.27z"/><path d="m161.27 211.46h17.73v3.71h-13.46v9.53h10.91v3.7h-10.91v9.79h14.15v3.71h-18.42z"/><path d="m192.54 235.18a12 12 0 0 0 7.76 3.27c2.85 0 5.26-1.59 5.26-4.48 0-6.6-14.75-5.18-14.75-14.54 0-4.74 4.1-8.49 9.84-8.49a12.46 12.46 0 0 1 8.62 3.06l-1.94 3.54a10.72 10.72 0 0 0 -6.68-2.63c-3.24 0-5.52 2-5.52 4.44 0 6.29 14.75 4.61 14.75 14.49 0 4.7-3.63 8.58-9.66 8.58a14.27 14.27 0 0 1 -10.1-4z"/><path d="m222.55 235.18a12.05 12.05 0 0 0 7.77 3.27c2.84 0 5.26-1.59 5.26-4.48 0-6.6-14.75-5.18-14.75-14.54 0-4.74 4.1-8.49 9.83-8.49a12.5 12.5 0 0 1 8.63 3.06l-1.94 3.54a10.76 10.76 0 0 0 -6.69-2.63c-3.23 0-5.52 2-5.52 4.44 0 6.29 14.75 4.61 14.75 14.49 0 4.7-3.62 8.58-9.66 8.58a14.24 14.24 0 0 1 -10.09-4z"/><path d="m270.12 235.18a12 12 0 0 0 7.76 3.27c2.85 0 5.26-1.59 5.26-4.48 0-6.6-14.74-5.18-14.74-14.54 0-4.74 4.09-8.49 9.83-8.49a12.46 12.46 0 0 1 8.62 3.06l-1.94 3.54a10.72 10.72 0 0 0 -6.68-2.63c-3.24 0-5.52 2-5.52 4.44 0 6.29 14.75 4.61 14.75 14.49 0 4.7-3.63 8.58-9.66 8.58a14.24 14.24 0 0 1 -10.09-4z"/><path d="m300.05 211.46h17.68v3.71h-13.41v9.53h10.91v3.7h-10.91v9.79h14.14v3.71h-18.41z"/><path d="m331.23 211.46h9.32a15.42 15.42 0 0 1 5.69.69c3.1 1.16 5.13 4.22 5.13 8.23a8.37 8.37 0 0 1 -5.48 8.24v.09a8.66 8.66 0 0 1 .91 1.38l6.47 11.81h-4.83l-6.44-12.12h-6.5v12.12h-4.27zm10.39 14.62c3.32 0 5.39-2.12 5.39-5.52a5 5 0 0 0 -2.41-4.7c-.82-.44-1.81-.69-4.18-.69h-4.92v10.91z"/><path d="m361.46 211.46h4.61l7.55 21.54c.56 1.64 1.17 4.18 1.17 4.18h.08s.61-2.54 1.17-4.18l7.63-21.52h4.53l-11.2 30.42h-4.27z"/><path d="m399.07 211.46h4.27v30.44h-4.27z"/><path d="m431.49 210.94c7.34 0 11.09 4 11.09 4l-2.12 3.19a13.86 13.86 0 0 0 -8.79-3.32c-6.82 0-11.26 5.18-11.26 11.64s4.53 12 11.3 12a13.76 13.76 0 0 0 9.4-4l2.29 3.06a16.35 16.35 0 0 1 -11.82 4.83c-9.14 0-15.57-7-15.57-15.91a15.2 15.2 0 0 1 15.48-15.49z"/><path d="m455.69 211.46h17.68v3.71h-13.37v9.53h10.91v3.7h-10.91v9.79h14.1v3.71h-18.41z"/><path d="m487 235.18a12.05 12.05 0 0 0 7.77 3.27c2.84 0 5.26-1.59 5.26-4.48 0-6.6-14.75-5.18-14.75-14.54 0-4.74 4.1-8.49 9.83-8.49a12.5 12.5 0 0 1 8.63 3.06l-1.94 3.54a10.76 10.76 0 0 0 -6.69-2.63c-3.23 0-5.52 2-5.52 4.44 0 6.29 14.75 4.61 14.75 14.49 0 4.7-3.62 8.58-9.66 8.58a14.24 14.24 0 0 1 -10.09-4z"/><path d="m491.29 191.12v-43.87a17.73 17.73 0 0 0 -9.7 3.94l-1.3 1.06-1.61-1.25a17.81 17.81 0 0 0 -9.07-3.63l-1.32-.13v43.87a9.12 9.12 0 0 1 -9.12 9.13h-2.88v2h48v-2h-3.87a9.13 9.13 0 0 1 -9.13-9.12z"/><path d="m490.6 64.25c0-.06 0-.12 0-.18-.18-3.51-3.09-5.84-5.59-9a43.67 43.67 0 0 1 -5.01-7.82 42.64 42.64 0 0 1 -5.05 7.85c-2.59 3.2-5.42 5.47-5.59 9v.17s0 .12 0 .18c.18 3.51 3.09 5.84 5.59 9a43.53 43.53 0 0 1 5.05 7.8 42.51 42.51 0 0 1 5-7.86c2.59-3.2 5.41-5.46 5.59-9 .02-.03.01-.08.01-.14z"/><path d="m486.29 112.21v-.11c-.11-2.14-1.88-3.56-3.41-5.47a26.9 26.9 0 0 1 -3.08-4.79 25.8 25.8 0 0 1 -3.08 4.79c-1.58 2-3.3 3.33-3.41 5.47s0 .07 0 .11 0 .07 0 .1c.11 2.15 1.88 3.57 3.41 5.48a26.5 26.5 0 0 1 3.08 4.79 25.8 25.8 0 0 1 3.08-4.79c1.58-2 3.3-3.34 3.41-5.48z"/><path d="m495.13 123.28s0 0 0-.07c-.45-1.41-1.88-2-3.24-3.07a18.13 18.13 0 0 1 -2.89-2.66 17.7 17.7 0 0 1 -1.23 3.74c-.72 1.58-1.63 2.8-1.33 4.25a.14.14 0 0 0 0 .07s0 0 0 .07c.45 1.41 1.88 2.06 3.23 3.07a18.25 18.25 0 0 1 2.9 2.67 17.79 17.79 0 0 1 1.22-3.74c.72-1.58 1.63-2.81 1.33-4.26a.19.19 0 0 1 .01-.07z"/><path d="m495.44 139.54a.13.13 0 0 1 0-.06c-.34-1.06-1.42-1.55-2.44-2.31a14 14 0 0 1 -2.18-2 13.89 13.89 0 0 1 -.93 2.82c-.54 1.19-1.23 2.11-1 3.21s0 0 0 .05a.13.13 0 0 1 0 .06c.33 1.07 1.42 1.56 2.44 2.32a14 14 0 0 1 2.18 2 13.89 13.89 0 0 1 .93-2.82c.54-1.19 1.23-2.12 1-3.21a.43.43 0 0 0 0-.06z"/><path d="m483.39 90.91v-.06c-.06-1.17-1-1.94-1.86-3a14.58 14.58 0 0 1 -1.69-2.61 14 14 0 0 1 -1.68 2.61c-.86 1.07-1.8 1.83-1.86 3v.15c.06 1.17 1 2 1.86 3a14 14 0 0 1 1.68 2.62 14.22 14.22 0 0 1 1.69-2.62c.86-1.07 1.8-1.82 1.86-3z"/><path d="m486.29 136v-.1c-.1-2-1.74-3.29-3.15-5a25.23 25.23 0 0 1 -2.84-4.42 24.48 24.48 0 0 1 -2.84 4.42c-1.46 1.8-3.05 3.07-3.15 5s0 .06 0 .1a.28.28 0 0 0 0 .09c.1 2 1.74 3.29 3.15 5.06a24.14 24.14 0 0 1 2.84 4.42 24.1 24.1 0 0 1 2.84-4.42c1.46-1.8 3.05-3.08 3.15-5.06z"/><path d="m510.37 48.46c0-.05 0-.11 0-.17.56-3.47-1.8-6.36-3.6-9.94a43.89 43.89 0 0 1 -3.31-8.73 42 42 0 0 1 -6.57 6.63c-3.2 2.59-6.43 4.22-7.33 7.62v.17.17c-.56 3.47 1.8 6.36 3.6 9.94a43.68 43.68 0 0 1 3.3 8.73 42.89 42.89 0 0 1 6.54-6.64c3.2-2.59 6.43-4.22 7.33-7.61z"/><path d="m496.57 86.92a.35.35 0 0 1 .05-.08c1-1.68.32-3.62.1-5.81a24 24 0 0 1 0-5.13 23.19 23.19 0 0 1 -4.66 2.1c-2.15.7-4.13.9-5.26 2.47a.59.59 0 0 0 0 .08l-.06.07c-1 1.67-.32 3.61-.1 5.81a24.3 24.3 0 0 1 0 5.12 23.18 23.18 0 0 1 4.67-2.11c2.15-.7 4.12-.91 5.25-2.47z"/><path d="m536.3 86h.11c2.13-1.24 2.64-3.8 3.78-6.37a30.65 30.65 0 0 1 3.25-5.68 30 30 0 0 1 -6.51-.61c-2.83-.58-5.15-1.6-7.39-.58l-.1.06h-.11c-2.13 1.25-2.64 3.81-3.78 6.38a30.74 30.74 0 0 1 -3.26 5.68 29.66 29.66 0 0 1 6.52.6c2.82.58 5.15 1.61 7.39.58a.33.33 0 0 0 .1-.06z"/><path d="m521.82 105.87h.18c2.46-.12 4.1-2.14 6.31-3.89a30.67 30.67 0 0 1 5.52-3.51 29.14 29.14 0 0 1 -5.48-3.57c-2.23-1.83-3.81-3.81-6.27-4h-.24c-2.46.11-4.11 2.14-6.31 3.88a30.53 30.53 0 0 1 -5.53 3.56 30 30 0 0 1 5.49 3.57c2.23 1.83 3.81 3.82 6.27 4h.11z"/><path d="m554.2 108.58h.17c3.23-.87 4.82-4 7.23-7a41.31 41.31 0 0 1 6.29-6.27 40.37 40.37 0 0 1 -8.32-3.11c-3.49-1.77-6.17-3.94-9.46-3.41h-.15-.17c-3.23.88-4.82 4.05-7.23 7a40.74 40.74 0 0 1 -6.29 6.27 40.79 40.79 0 0 1 8.32 3.12c3.49 1.77 6.17 3.94 9.46 3.4z"/><path d="m497.94 116.89.06.12c1.36 2.21 4.07 2.68 6.79 3.82a31.69 31.69 0 0 1 6 3.29 31.26 31.26 0 0 1 .49-6.87c.54-3 1.56-5.44.43-7.77l-.06-.11-.06-.11c-1.36-2.21-4.07-2.69-6.79-3.82a32.36 32.36 0 0 1 -6-3.29 31.16 31.16 0 0 1 -.49 6.86c-.54 3-1.56 5.45-.43 7.78z"/><path d="m519.45 121.59.06.08c1.41 1.58 3.64 1.58 6 2.1a26.08 26.08 0 0 1 5.31 1.79 25.57 25.57 0 0 1 -.58-5.58c0-2.47.48-4.6-.75-6.31l-.06-.08-.06-.08c-1.41-1.58-3.64-1.58-6-2.1a26.08 26.08 0 0 1 -5.31-1.79 25.57 25.57 0 0 1 .58 5.58c0 2.47-.48 4.6.75 6.31z"/><path d="m540.12 125.06h.09c1.86 1 4 .23 6.36-.08a26 26 0 0 1 5.6-.14 25.53 25.53 0 0 1 -2.46-5c-.83-2.33-1.11-4.48-2.86-5.67h-.09l-.09-.05c-1.86-1-4-.23-6.36.08a26 26 0 0 1 -5.6.14 25.53 25.53 0 0 1 2.46 5c.83 2.33 1.11 4.48 2.86 5.67z"/><path d="m519.43 138.17v.06c1 1.15 2.63 1.16 4.33 1.55a18.87 18.87 0 0 1 3.84 1.32 18.61 18.61 0 0 1 -.39-4c0-1.79.37-3.32-.52-4.57v-.06l-.05-.06c-1-1.15-2.63-1.16-4.33-1.55a18.83 18.83 0 0 1 -3.85-1.32 18.22 18.22 0 0 1 .4 4c0 1.79-.37 3.32.51 4.57z"/><path d="m498.65 137.82a.32.32 0 0 1 0 .09c.79 1.83 2.79 2.49 4.73 3.66a24.81 24.81 0 0 1 4.22 3.18 23.78 23.78 0 0 1 1.13-5.16c.75-2.2 1.8-4 1.21-5.85a.36.36 0 0 1 0-.09v-.09c-.79-1.82-2.78-2.49-4.73-3.66a24.14 24.14 0 0 1 -4.21-3.17 24.18 24.18 0 0 1 -1.14 5.15c-.75 2.21-1.8 4-1.2 5.86z"/><path d="m504.09 97.63h.07c1.39-.48 2-1.92 2.94-3.29a18.34 18.34 0 0 1 2.55-2.94 17.26 17.26 0 0 1 -3.74-1.1c-1.58-.66-2.82-1.52-4.24-1.18h-.07-.07c-1.38.48-2 1.92-2.93 3.29a18.34 18.34 0 0 1 -2.6 2.95 18 18 0 0 1 3.73 1.1c1.58.66 2.82 1.52 4.25 1.18z"/><path d="m486.28 104a.25.25 0 0 1 0 .07c.94 1.13 2.49 1.18 4.11 1.6a18.44 18.44 0 0 1 3.64 1.36 17.57 17.57 0 0 1 -.27-3.88c.06-1.72.44-3.18-.38-4.39l-.05-.05a.21.21 0 0 0 0-.06c-.94-1.13-2.49-1.18-4.11-1.6a18 18 0 0 1 -3.65-1.36 17.91 17.91 0 0 1 .28 3.88c-.07 1.72-.44 3.18.37 4.4z"/><path d="m563.43 81.43.13-.06c2.51-1.47 3.11-4.49 4.45-7.52a36 36 0 0 1 3.84-6.7 35.06 35.06 0 0 1 -7.68-.71c-3.33-.69-6.07-1.9-8.72-.69l-.12.07-.13.06c-2.5 1.47-3.11 4.49-4.45 7.52a36.07 36.07 0 0 1 -3.84 6.69 35.47 35.47 0 0 1 7.68.72c3.33.68 6.07 1.89 8.72.69z"/><path d="m520.56 76.51a1.34 1.34 0 0 0 .11-.14c1.92-3 .94-6.54.75-10.55a43.43 43.43 0 0 1 .53-9.32 42.67 42.67 0 0 1 -8.7 3.39c-4 1.06-7.59 1.24-9.8 4a1.7 1.7 0 0 1 -.1.14l-.1.14c-1.92 3-.94 6.54-.75 10.55a43.43 43.43 0 0 1 -.5 9.28 42.67 42.67 0 0 1 8.7-3.39c4-1.06 7.59-1.24 9.8-4z"/><path d="m547.62 32.19.06-.06c1.08-1.28.84-3 1-4.92a21 21 0 0 1 .8-4.36 19.87 19.87 0 0 1 -4.29 1.08c-1.94.26-3.65.13-4.85 1.28v.06l-.06.05c-1.08 1.27-.84 3-1 4.92a20.84 20.84 0 0 1 -.8 4.35 20.24 20.24 0 0 1 4.29-1.07c1.94-.26 3.65-.13 4.85-1.29z"/><path d="m563.82 56.88.07-.05c1.32-1 1.44-2.79 2-4.61a20.7 20.7 0 0 1 1.7-4.09 20.32 20.32 0 0 1 -4.43.16c-1.95-.15-3.6-.64-5 .24h-.06-.07c-1.32 1-1.45 2.78-2 4.6a21 21 0 0 1 -1.69 4.1 20.19 20.19 0 0 1 4.42-.16c2 .14 3.6.63 5-.25z"/><path d="m548.42 60.84.12-.14c2.13-3 1.27-6.77 1.26-10.95a45.45 45.45 0 0 1 1-9.68 44.26 44.26 0 0 1 -9.21 3.14c-4.19.92-8 .94-10.38 3.69l-.1.14a1.49 1.49 0 0 0 -.12.14c-2.13 3-1.27 6.77-1.26 10.95a45.45 45.45 0 0 1 -1 9.68 43.92 43.92 0 0 1 9.21-3.13c4.19-.93 8-1 10.38-3.7z"/><path d="m512.29 12.51v-.12c.37-2.3-1.2-4.22-2.39-6.6a29.12 29.12 0 0 1 -2.18-5.79 28.29 28.29 0 0 1 -4.36 4.4c-2.12 1.72-4.27 2.8-4.87 5.06s0 .08 0 .11a.53.53 0 0 0 0 .12c-.37 2.3 1.2 4.22 2.39 6.59a28.86 28.86 0 0 1 2.19 5.8 28.29 28.29 0 0 1 4.36-4.4c2.13-1.72 4.27-2.8 4.87-5.06s-.02-.08-.01-.11z"/><path d="m532.68 33.58.08-.16c1.26-3.29-.44-6.6-1.46-10.48a43.92 43.92 0 0 1 -1.42-9.22 42.72 42.72 0 0 1 -7.8 5.12c-3.67 1.86-7.17 2.79-8.76 5.92l-.06.16a1.19 1.19 0 0 1 -.08.16c-1.26 3.29.44 6.6 1.46 10.48a43.51 43.51 0 0 1 1.36 9.22 42.43 42.43 0 0 1 7.81-5.12c3.67-1.87 7.17-2.8 8.76-5.93z"/><path d="m464.32 123.28s0 0 0-.07c.45-1.41 1.88-2 3.23-3.07a18 18 0 0 0 2.9-2.66 18 18 0 0 0 1.22 3.74c.72 1.58 1.63 2.8 1.33 4.25a.25.25 0 0 0 0 .07s0 0 0 .07c-.45 1.41-1.88 2.06-3.24 3.07a18.43 18.43 0 0 0 -2.89 2.67 17.5 17.5 0 0 0 -1.23-3.74c-.72-1.58-1.63-2.81-1.33-4.26a.19.19 0 0 1 .01-.07z"/><path d="m464 139.54a.13.13 0 0 1 0-.06c.34-1.06 1.42-1.55 2.45-2.31a14 14 0 0 0 2.18-2 13.46 13.46 0 0 0 .92 2.82c.55 1.19 1.23 2.11 1 3.21s0 0 0 .05 0 0 0 .06c-.34 1.07-1.42 1.56-2.44 2.32a14.37 14.37 0 0 0 -2.19 2 13.46 13.46 0 0 0 -.92-2.82c-.54-1.19-1.23-2.12-1-3.21s0-.05 0-.06z"/><path d="m449.08 48.46c0-.05 0-.11 0-.17-.55-3.47 1.81-6.36 3.61-9.94a43.43 43.43 0 0 0 3.3-8.73 42.58 42.58 0 0 0 6.57 6.63c3.21 2.59 6.44 4.22 7.34 7.62v.17a1.09 1.09 0 0 1 0 .17c.55 3.47-1.8 6.36-3.6 9.94a43.38 43.38 0 0 0 -3.3 8.72 42.52 42.52 0 0 0 -6.57-6.63c-3.2-2.59-6.43-4.22-7.34-7.61z"/><path d="m462.88 86.92-.06-.08c-1-1.68-.32-3.62-.1-5.81a23.63 23.63 0 0 0 0-5.13 23.19 23.19 0 0 0 4.67 2.1c2.15.7 4.13.9 5.26 2.47a.56.56 0 0 1 .05.08l.06.07c1 1.67.32 3.61.1 5.81a23.51 23.51 0 0 0 0 5.12 23.52 23.52 0 0 0 -4.67-2.11c-2.15-.7-4.13-.91-5.26-2.47z"/><path d="m423.14 86h-.14c-2.13-1.24-2.64-3.8-3.78-6.37a30.32 30.32 0 0 0 -3.22-5.71 30.08 30.08 0 0 0 6.52-.61c2.83-.58 5.15-1.6 7.39-.58l.11.06h.11c2.13 1.25 2.64 3.81 3.78 6.38a30.74 30.74 0 0 0 3.26 5.68 29.63 29.63 0 0 0 -6.52.6c-2.83.58-5.15 1.61-7.39.58a.6.6 0 0 1 -.12-.03z"/><path d="m437.62 105.87h-.12c-2.46-.12-4.11-2.14-6.31-3.89a30.53 30.53 0 0 0 -5.53-3.51 29.38 29.38 0 0 0 5.49-3.57c2.23-1.83 3.81-3.81 6.27-4h.24c2.46.11 4.11 2.14 6.31 3.88a30.53 30.53 0 0 0 5.53 3.51 30 30 0 0 0 -5.49 3.57c-2.23 1.83-3.81 3.82-6.27 4h-.12z"/><path d="m405.24 108.58h-.16c-3.23-.87-4.81-4-7.22-7a41.85 41.85 0 0 0 -6.29-6.27 40.41 40.41 0 0 0 8.31-3.11c3.5-1.77 6.17-3.94 9.47-3.41h.16.16c3.23.88 4.81 4.05 7.22 7a41.26 41.26 0 0 0 6.29 6.27 40.83 40.83 0 0 0 -8.31 3.12c-3.49 1.77-6.17 3.94-9.47 3.4z"/><path d="m461.5 116.89-.05.12c-1.36 2.21-4.06 2.68-6.79 3.82a31.69 31.69 0 0 0 -6 3.29 31.59 31.59 0 0 0 -.48-6.87c-.54-3-1.56-5.44-.43-7.77l.06-.11.06-.11c1.36-2.21 4.06-2.69 6.79-3.82a32.36 32.36 0 0 0 6-3.29 31.49 31.49 0 0 0 .48 6.86c.54 3 1.57 5.45.44 7.78z"/><path d="m440 121.59-.06.08c-1.4 1.58-3.64 1.58-6 2.1a26.33 26.33 0 0 0 -5.32 1.79 25.18 25.18 0 0 0 .59-5.58c0-2.47-.49-4.6.75-6.31l.07-.08.06-.08c1.4-1.58 3.64-1.58 6-2.1a26.33 26.33 0 0 0 5.32-1.79 25.92 25.92 0 0 0 -.59 5.58c0 2.47.49 4.6-.75 6.31z"/><path d="m419.32 125.06h-.08c-1.86 1-4 .23-6.35-.08a26 26 0 0 0 -5.6-.14 25.85 25.85 0 0 0 2.45-5c.83-2.33 1.12-4.48 2.86-5.67h.09s.05 0 .09-.05c1.86-1 4-.23 6.35.08a26.11 26.11 0 0 0 5.61.14 25.53 25.53 0 0 0 -2.46 5c-.83 2.33-1.12 4.48-2.86 5.67z"/><path d="m440 138.17v.06c-1 1.15-2.63 1.16-4.33 1.55a19.12 19.12 0 0 0 -3.85 1.32 18.22 18.22 0 0 0 .4-4c0-1.79-.37-3.32.51-4.57l.05-.06v-.06c1-1.15 2.63-1.16 4.33-1.55a18.87 18.87 0 0 0 3.84-1.32 18.61 18.61 0 0 0 -.39 4c0 1.79.37 3.32-.52 4.57z"/><path d="m460.79 137.82v.09c-.78 1.83-2.78 2.49-4.72 3.66a24.81 24.81 0 0 0 -4.22 3.18 24.2 24.2 0 0 0 -1.14-5.16c-.74-2.2-1.8-4-1.2-5.85v-.09-.09c.78-1.82 2.78-2.49 4.72-3.66a24.49 24.49 0 0 0 4.22-3.17 24.18 24.18 0 0 0 1.14 5.15c.74 2.21 1.8 4 1.2 5.86z"/><path d="m455.36 97.63h-.07c-1.38-.48-2-1.92-2.93-3.29a18.34 18.34 0 0 0 -2.55-2.94 17.27 17.27 0 0 0 3.73-1.1c1.59-.66 2.82-1.52 4.25-1.18h.07.07c1.38.48 2 1.92 2.93 3.29a18.34 18.34 0 0 0 2.55 2.94 18 18 0 0 0 -3.73 1.1c-1.59.66-2.83 1.52-4.25 1.18z"/><path d="m473.16 104a.25.25 0 0 1 0 .07c-.94 1.13-2.49 1.18-4.11 1.6a18.71 18.71 0 0 0 -3.65 1.36 17.91 17.91 0 0 0 .28-3.88c-.07-1.72-.44-3.18.37-4.39v-.05-.06c.94-1.13 2.49-1.18 4.11-1.6a17.72 17.72 0 0 0 3.64-1.36 17.57 17.57 0 0 0 -.27 3.88c.07 1.72.44 3.18-.38 4.4s.03.03.01.03z"/><path d="m396 81.43-.13-.06c-2.51-1.47-3.11-4.49-4.46-7.52a36 36 0 0 0 -3.84-6.7 35.13 35.13 0 0 0 7.69-.71c3.33-.69 6.07-1.9 8.71-.69l.12.07.13.06c2.51 1.47 3.12 4.49 4.46 7.52a36.07 36.07 0 0 0 3.84 6.69 35.47 35.47 0 0 0 -7.68.72c-3.34.68-6.08 1.89-8.72.69z"/><path d="m438.88 76.51a1.34 1.34 0 0 0 -.11-.14c-1.92-3-.94-6.54-.75-10.55a44.22 44.22 0 0 0 -.53-9.32 42.67 42.67 0 0 0 8.7 3.39c4 1.06 7.59 1.24 9.8 4l.09.14a1.34 1.34 0 0 1 .11.14c1.91 3 .93 6.54.75 10.55a43.43 43.43 0 0 0 .53 9.32 42.67 42.67 0 0 0 -8.7-3.39c-4-1.06-7.6-1.24-9.8-4a1.7 1.7 0 0 0 -.09-.14z"/><path d="m411.83 32.19-.06-.06c-1.08-1.28-.83-3-1-4.92a20.62 20.62 0 0 0 -.81-4.36 20.07 20.07 0 0 0 4.3 1.08c1.93.26 3.65.13 4.85 1.28l.06.06.06.05c1.08 1.27.83 3 1 4.92a20.43 20.43 0 0 0 .77 4.36 20.23 20.23 0 0 0 -4.3-1.07c-1.93-.26-3.64-.13-4.85-1.29z"/><path d="m395.63 56.88-.07-.05c-1.32-1-1.44-2.79-2-4.61a20.7 20.7 0 0 0 -1.7-4.09 20.32 20.32 0 0 0 4.43.16c1.94-.15 3.59-.64 5 .24h.07.07c1.32 1 1.44 2.78 2 4.6a20.3 20.3 0 0 0 1.69 4.1 20.32 20.32 0 0 0 -4.43-.16c-1.94.14-3.59.63-5-.25z"/><path d="m411 60.84-.12-.14c-2.13-3-1.27-6.77-1.25-10.95a45 45 0 0 0 -1-9.68 44.53 44.53 0 0 0 9.21 3.14c4.19.92 8 .94 10.38 3.69l.1.14.12.14c2.13 3 1.27 6.77 1.25 10.95a45.8 45.8 0 0 0 1 9.68 44.19 44.19 0 0 0 -9.21-3.13c-4.19-.93-8-1-10.38-3.7z"/><path d="m447.16 12.51a.53.53 0 0 1 0-.12c-.37-2.3 1.2-4.22 2.39-6.6a28.66 28.66 0 0 0 2.17-5.79 28.29 28.29 0 0 0 4.36 4.4c2.13 1.72 4.27 2.8 4.87 5.06s0 .08 0 .11v.12c.37 2.3-1.2 4.22-2.39 6.59a29.32 29.32 0 0 0 -2.2 5.8 28.29 28.29 0 0 0 -4.36-4.4c-2.12-1.72-4.27-2.8-4.87-5.06s.03-.08.03-.11z"/><path d="m426.77 33.58-.08-.16c-1.27-3.29.44-6.6 1.45-10.48a43.14 43.14 0 0 0 1.42-9.22 43 43 0 0 0 7.81 5.12c3.67 1.86 7.17 2.79 8.76 5.92 0 .06 0 .11.07.16s0 .1.07.16c1.26 3.29-.44 6.6-1.46 10.48a44 44 0 0 0 -1.42 9.23 42.12 42.12 0 0 0 -7.8-5.12c-3.67-1.87-7.18-2.8-8.76-5.93z"/><path d="m492.36 23.25c0-.07 0-.14 0-.21-.21-4.13-3.63-6.87-6.58-10.55a51.57 51.57 0 0 1 -5.94-9.24 49.77 49.77 0 0 1 -5.94 9.24c-3.05 3.76-6.37 6.43-6.58 10.55v.2s0 .14 0 .21c.21 4.13 3.63 6.87 6.58 10.56a51.17 51.17 0 0 1 5.94 9.24 49.77 49.77 0 0 1 5.93-9.25c3.05-3.77 6.37-6.43 6.58-10.56.02-.06.01-.12.01-.19z"/></g></svg>